<svg xmlns="http://www.w3.org/2000/svg" xmlns:xlink="http://www.w3.org/1999/xlink" width="116" zoomAndPan="magnify" viewBox="0 0 87 30.000001" height="40" preserveAspectRatio="xMidYMid meet" version="1.0"><defs><g/></defs><g fill="#000000" fill-opacity="1"><g transform="translate(1.403224, 22.681453)"><g><path d="M 4.34375 -17.457031 C 0.722656 -0.382812 0.703125 -0.339844 0.703125 -0.320312 C 0.703125 -0.128906 0.871094 0 1.0625 0 L 7.28125 0 C 7.515625 0 7.726562 -0.191406 7.792969 -0.425781 L 8.175781 -2.320312 L 8.175781 -2.40625 C 8.175781 -2.597656 8.046875 -2.746094 7.832031 -2.746094 L 4.597656 -2.746094 L 5.664062 -7.792969 L 7.855469 -7.792969 C 8.089844 -7.792969 8.324219 -7.984375 8.386719 -8.21875 C 8.8125 -10.347656 8.835938 -10.367188 8.835938 -10.410156 C 8.835938 -10.601562 8.683594 -10.730469 8.492188 -10.730469 L 6.300781 -10.730469 L 7.238281 -15.136719 L 10.472656 -15.136719 C 10.707031 -15.136719 10.941406 -15.328125 10.984375 -15.5625 L 11.410156 -17.542969 C 11.410156 -17.734375 11.28125 -17.882812 11.070312 -17.882812 L 4.855469 -17.882812 C 4.621094 -17.882812 4.386719 -17.691406 4.34375 -17.457031 Z M 4.34375 -17.457031 "/></g></g></g><g fill="#000000" fill-opacity="1"><g transform="translate(9.74754, 22.681453)"><g><path d="M 5.875 0 C 6.257812 0 7.34375 -0.0195312 7.664062 -1.488281 C 9.261719 -9.003906 9.28125 -9.152344 9.28125 -9.304688 C 9.28125 -10.28125 8.410156 -10.304688 8.066406 -10.304688 L 6.195312 -10.304688 L 7.238281 -15.136719 L 10.367188 -15.136719 C 10.601562 -15.136719 10.835938 -15.328125 10.878906 -15.5625 L 11.28125 -17.542969 C 11.28125 -17.734375 11.15625 -17.882812 10.941406 -17.882812 L 5.898438 -17.882812 C 5.511719 -17.882812 4.429688 -17.859375 4.109375 -16.414062 C 2.492188 -8.75 2.46875 -8.601562 2.46875 -8.453125 C 2.46875 -7.472656 3.34375 -7.449219 3.683594 -7.449219 L 5.554688 -7.449219 L 4.597656 -3 L 1.683594 -3 C 1.449219 -3 1.234375 -2.808594 1.171875 -2.574219 C 0.722656 -0.382812 0.703125 -0.339844 0.703125 -0.320312 C 0.703125 -0.128906 0.871094 0 1.0625 0 Z M 5.875 0 "/></g></g></g><g fill="#000000" fill-opacity="1"><g transform="translate(17.964139, 22.681453)"><g><path d="M 0.914062 -21.289062 C 0.679688 -21.289062 0.445312 -21.097656 0.40625 -20.863281 L 0 -18.96875 C 0 -18.710938 0.128906 -18.542969 0.339844 -18.542969 L 4.578125 -18.542969 C 0.722656 -0.382812 0.703125 -0.339844 0.703125 -0.320312 C 0.703125 -0.128906 0.871094 0 1.0625 0 L 3.578125 0 C 3.808594 0 4.023438 -0.191406 4.085938 -0.425781 L 7.941406 -18.542969 L 12.175781 -18.542969 C 12.410156 -18.542969 12.644531 -18.734375 12.6875 -18.96875 L 13.09375 -20.949219 C 13.09375 -21.140625 12.964844 -21.289062 12.75 -21.289062 Z M 0.914062 -21.289062 "/></g></g></g><g fill="#000000" fill-opacity="1"><g transform="translate(22.625886, 22.681453)"><g><path d="M 4.34375 -17.457031 C 0.722656 -0.382812 0.703125 -0.339844 0.703125 -0.320312 C 0.703125 -0.128906 0.871094 0 1.0625 0 L 7.28125 0 C 7.515625 0 7.726562 -0.191406 7.792969 -0.425781 L 8.175781 -2.320312 L 8.175781 -2.40625 C 8.175781 -2.597656 8.046875 -2.746094 7.832031 -2.746094 L 4.597656 -2.746094 L 5.664062 -7.792969 L 7.855469 -7.792969 C 8.089844 -7.792969 8.324219 -7.984375 8.386719 -8.21875 C 8.8125 -10.347656 8.835938 -10.367188 8.835938 -10.410156 C 8.835938 -10.601562 8.683594 -10.730469 8.492188 -10.730469 L 6.300781 -10.730469 L 7.238281 -15.136719 L 10.472656 -15.136719 C 10.707031 -15.136719 10.941406 -15.328125 10.984375 -15.5625 L 11.410156 -17.542969 C 11.410156 -17.734375 11.28125 -17.882812 11.070312 -17.882812 L 4.855469 -17.882812 C 4.621094 -17.882812 4.386719 -17.691406 4.34375 -17.457031 Z M 4.34375 -17.457031 "/></g></g></g><g fill="#000000" fill-opacity="1"><g transform="translate(30.970202, 22.681453)"><g><path d="M 4.34375 -17.457031 C 0.722656 -0.382812 0.703125 -0.339844 0.703125 -0.320312 C 0.703125 -0.128906 0.871094 0 1.0625 0 L 7.28125 0 C 7.515625 0 7.726562 -0.191406 7.792969 -0.425781 L 8.175781 -2.320312 L 8.175781 -2.40625 C 8.175781 -2.597656 8.046875 -2.746094 7.832031 -2.746094 L 4.597656 -2.746094 L 5.664062 -7.792969 L 7.855469 -7.792969 C 8.089844 -7.792969 8.324219 -7.984375 8.386719 -8.21875 C 8.8125 -10.347656 8.835938 -10.367188 8.835938 -10.410156 C 8.835938 -10.601562 8.683594 -10.730469 8.492188 -10.730469 L 6.300781 -10.730469 L 7.238281 -15.136719 L 10.472656 -15.136719 C 10.707031 -15.136719 10.941406 -15.328125 10.984375 -15.5625 L 11.410156 -17.542969 C 11.410156 -17.734375 11.28125 -17.882812 11.070312 -17.882812 L 4.855469 -17.882812 C 4.621094 -17.882812 4.386719 -17.691406 4.34375 -17.457031 Z M 4.34375 -17.457031 "/></g></g></g><g fill="#000000" fill-opacity="1"><g transform="translate(39.314517, 22.681453)"><g><path d="M 5.917969 -17.882812 C 5.535156 -17.882812 4.429688 -17.882812 4.109375 -16.390625 C 0.722656 -0.382812 0.703125 -0.339844 0.703125 -0.320312 C 0.703125 -0.128906 0.871094 0 1.0625 0 L 3.597656 0 C 3.832031 0 4.042969 -0.191406 4.109375 -0.425781 L 7.238281 -15.136719 L 8.257812 -15.136719 C 5.128906 -0.363281 5.109375 -0.339844 5.109375 -0.296875 C 5.109375 -0.105469 5.257812 0.0195312 5.449219 0.0195312 L 7.984375 0.0195312 C 8.21875 0.0195312 8.453125 -0.171875 8.515625 -0.40625 L 11.644531 -15.136719 L 12.6875 -15.136719 C 9.558594 -0.382812 9.535156 -0.339844 9.535156 -0.320312 C 9.535156 -0.128906 9.707031 0 9.898438 0 L 12.410156 0 C 12.644531 0 12.859375 -0.191406 12.921875 -0.425781 C 16.328125 -16.582031 16.347656 -16.730469 16.347656 -16.882812 C 16.347656 -17.882812 15.453125 -17.882812 15.113281 -17.882812 L 12.007812 -17.882812 C 10.515625 -17.882812 10.28125 -16.816406 10.21875 -16.433594 L 10.113281 -16.433594 C 10.132812 -16.582031 10.15625 -16.753906 10.15625 -16.925781 C 10.15625 -17.371094 9.960938 -17.882812 8.917969 -17.882812 Z M 5.917969 -17.882812 "/></g></g></g><g fill="#000000" fill-opacity="1"><g transform="translate(52.788894, 22.681453)"><g/></g></g><g fill="#000000" fill-opacity="1"><g transform="translate(58.11053, 22.681453)"><g><path d="M 4.34375 -17.457031 C 0.894531 -1.320312 0.894531 -1.148438 0.894531 -1.023438 C 0.894531 0 1.789062 0 2.128906 0 L 8.027344 0 C 8.257812 0 8.472656 -0.191406 8.535156 -0.425781 C 12.113281 -17.457031 12.132812 -17.476562 12.132812 -17.519531 C 12.132812 -17.710938 11.984375 -17.839844 11.792969 -17.839844 L 9.261719 -17.839844 C 9.027344 -17.839844 8.792969 -17.648438 8.726562 -17.414062 L 5.621094 -2.746094 L 4.597656 -2.746094 L 7.726562 -17.542969 C 7.726562 -17.734375 7.601562 -17.882812 7.386719 -17.882812 L 4.855469 -17.882812 C 4.621094 -17.882812 4.386719 -17.691406 4.34375 -17.457031 Z M 4.34375 -17.457031 "/></g></g></g><g fill="#000000" fill-opacity="1"><g transform="translate(67.199878, 22.681453)"><g><path d="M 9.34375 -5.960938 C 11.601562 -16.582031 11.625 -16.730469 11.625 -16.882812 C 11.625 -17.859375 10.75 -17.882812 10.410156 -17.882812 L 4.855469 -17.882812 C 4.621094 -17.882812 4.386719 -17.691406 4.34375 -17.457031 C 0.722656 -0.382812 0.703125 -0.339844 0.703125 -0.320312 C 0.703125 -0.128906 0.871094 0 1.0625 0 L 3.597656 0 C 3.832031 0 4.042969 -0.191406 4.109375 -0.425781 L 4.960938 -4.46875 L 7.535156 -4.46875 C 7.917969 -4.46875 9.027344 -4.46875 9.34375 -5.960938 Z M 7.238281 -15.136719 L 8.257812 -15.136719 L 6.578125 -7.214844 L 5.554688 -7.214844 Z M 7.238281 -15.136719 "/></g></g></g><g fill="#000000" fill-opacity="1"><g transform="translate(75.927352, 22.681453)"><g><path d="M 4.855469 -17.882812 C 4.621094 -17.882812 4.386719 -17.691406 4.34375 -17.457031 C 1.765625 -5.28125 1.746094 -5.257812 1.746094 -5.214844 C 1.746094 -5.023438 1.894531 -4.894531 2.085938 -4.894531 L 4.621094 -4.894531 C 4.855469 -4.894531 5.085938 -5.085938 5.152344 -5.320312 L 7.726562 -17.542969 C 7.726562 -17.734375 7.601562 -17.882812 7.386719 -17.882812 Z M 1.789062 -3.40625 C 1.554688 -3.40625 1.320312 -3.214844 1.257812 -2.980469 C 0.722656 -0.382812 0.703125 -0.339844 0.703125 -0.320312 C 0.703125 -0.128906 0.871094 0 1.0625 0 L 3.597656 0 C 3.832031 0 4.042969 -0.191406 4.109375 -0.425781 C 4.640625 -3.023438 4.660156 -3.042969 4.660156 -3.085938 C 4.660156 -3.277344 4.511719 -3.40625 4.320312 -3.40625 Z M 1.789062 -3.40625 "/></g></g></g></svg>