<svg width="21" height="22" viewBox="0 0 21 22" fill="none" xmlns="http://www.w3.org/2000/svg">
<path d="M16.8415 6.41939C18.3381 6.41939 19.5512 5.20622 19.5512 3.70969C19.5512 2.21317 18.3381 1 16.8415 1C15.345 1 14.1318 2.21317 14.1318 3.70969C14.1318 5.20622 15.345 6.41939 16.8415 6.41939Z" stroke="#1B1B1B" stroke-width="1.5" stroke-miterlimit="10"/>
<path d="M16.8415 21.0001C18.3381 21.0001 19.5512 19.7869 19.5512 18.2904C19.5512 16.7939 18.3381 15.5807 16.8415 15.5807C15.345 15.5807 14.1318 16.7939 14.1318 18.2904C14.1318 19.7869 15.345 21.0001 16.8415 21.0001Z" stroke="#1B1B1B" stroke-width="1.5" stroke-miterlimit="10"/>
<path d="M3.70969 13.6564C5.20622 13.6564 6.41939 12.4433 6.41939 10.9468C6.41939 9.45023 5.20622 8.23706 3.70969 8.23706C2.21317 8.23706 1 9.45023 1 10.9468C1 12.4433 2.21317 13.6564 3.70969 13.6564Z" stroke="#1B1B1B" stroke-width="1.5" stroke-miterlimit="10"/>
<path d="M14.4686 5.01807L6.07446 9.64389" stroke="#1B1B1B" stroke-width="1.5" stroke-miterlimit="10"/>
<path d="M6.07446 12.2684L14.4777 16.9658" stroke="#1B1B1B" stroke-width="1.5" stroke-miterlimit="10"/>
</svg>
